<?xml version="1.0" standalone="no"?><!DOCTYPE svg PUBLIC "-//W3C//DTD SVG 1.1//EN" "http://www.w3.org/Graphics/SVG/1.1/DTD/svg11.dtd"><svg t="1602210082487" class="icon" viewBox="0 0 1024 1024" version="1.1" xmlns="http://www.w3.org/2000/svg" p-id="21297" width="64" height="64" xmlns:xlink="http://www.w3.org/1999/xlink"><defs><style type="text/css"></style></defs><path d="M433.95122 743.02439c68.682927 0 112.390244 49.95122 112.390243 118.634147 0 31.219512-12.487805 62.439024-31.219512 81.170731l-6.243902 6.243903 56.195122 37.463414-31.219512 31.219513-68.682927-43.707318c-12.487805 6.243902-24.97561 6.243902-37.463415 6.243903-74.926829 0-112.390244-56.195122-112.390244-118.634146 6.243902-68.682927 49.95122-118.634146 118.634147-118.634147zM939.707317 0c18.731707 0 31.219512 12.487805 31.219512 31.219512v924.097561c0 18.731707-12.487805 31.219512-31.219512 31.219512H864.780488v-68.682926h37.463414V686.829268H53.073171V31.219512C53.073171 12.487805 65.560976 0 84.292683 0h855.414634zM159.219512 743.02439c56.195122 0 81.170732 31.219512 87.414634 62.439025v6.243902h-49.951219c0-12.487805-12.487805-31.219512-43.707317-31.219512-18.731707 0-31.219512 6.243902-31.219512 24.97561 0 18.731707 12.487805 24.97561 49.951219 31.219512 68.682927 18.731707 81.170732 43.707317 81.170732 74.926829 0 43.707317-31.219512 74.926829-93.658537 74.926829-56.195122 0-87.414634-24.97561-93.658536-62.439024v-6.243902H115.512195c6.243902 24.97561 24.97561 31.219512 49.95122 31.219512s37.463415-12.487805 37.463414-24.97561c0-18.731707-12.487805-24.97561-49.951219-37.463415-62.439024-12.487805-81.170732-37.463415-81.170732-68.682926 0-49.95122 31.219512-74.926829 87.414634-74.92683z m518.243903 6.243903v193.560975h118.634146l-6.243902 43.707317H627.512195V749.268293h49.95122z m-243.512195 37.463414c-43.707317 0-62.439024 31.219512-62.439025 81.170732 0 43.707317 18.731707 81.170732 62.439025 81.170732s62.439024-37.463415 62.439024-81.170732c0-49.95122-18.731707-81.170732-62.439024-81.170732zM902.243902 374.634146H121.756098v243.512195h780.487804V374.634146zM658.731707 468.292683h137.365854c18.731707 0 37.463415 18.731707 37.463415 37.463415s-12.487805 31.219512-31.219513 37.463414H658.731707c-18.731707 0-37.463415-18.731707-37.463414-37.463414s12.487805-31.219512 37.463414-37.463415h137.365854-137.365854z m243.512195-399.609756H121.756098V312.195122h780.487804V68.682927z m-106.146341 81.170732c18.731707 0 37.463415 18.731707 37.463415 37.463414s-12.487805 31.219512-31.219513 37.463415H658.731707c-18.731707-6.243902-37.463415-18.731707-37.463414-37.463415s12.487805-31.219512 31.219512-37.463414H796.097561z" p-id="21298" fill="#1296db"></path><path d="M433.95122 743.02439c68.682927 0 112.390244 49.95122 112.390243 118.634147 0 31.219512-12.487805 62.439024-31.219512 81.170731l-6.243902 6.243903 56.195122 37.463414-31.219512 31.219513-68.682927-43.707318c-12.487805 6.243902-24.97561 6.243902-37.463415 6.243903-74.926829 0-112.390244-56.195122-112.390244-118.634146 6.243902-68.682927 49.95122-118.634146 118.634147-118.634147zM939.707317 0c18.731707 0 31.219512 12.487805 31.219512 31.219512v924.097561c0 18.731707-12.487805 31.219512-31.219512 31.219512H864.780488v-68.682926h37.463414V686.829268H53.073171V31.219512C53.073171 12.487805 65.560976 0 84.292683 0h855.414634zM159.219512 743.02439c56.195122 0 81.170732 31.219512 87.414634 62.439025v6.243902h-49.951219c0-12.487805-12.487805-31.219512-43.707317-31.219512-18.731707 0-31.219512 6.243902-31.219512 24.97561 0 18.731707 12.487805 24.97561 49.951219 31.219512 68.682927 18.731707 81.170732 43.707317 81.170732 74.926829 0 43.707317-31.219512 74.926829-93.658537 74.926829-56.195122 0-87.414634-24.97561-93.658536-62.439024v-6.243902H115.512195c6.243902 24.97561 24.97561 31.219512 49.95122 31.219512s37.463415-12.487805 37.463414-24.97561c0-18.731707-12.487805-24.97561-49.951219-37.463415-62.439024-12.487805-81.170732-37.463415-81.170732-68.682926 0-49.95122 31.219512-74.926829 87.414634-74.92683z m518.243903 6.243903v193.560975h118.634146l-6.243902 43.707317H627.512195V749.268293h49.95122z m-243.512195 37.463414c-43.707317 0-62.439024 31.219512-62.439025 81.170732 0 43.707317 18.731707 81.170732 62.439025 81.170732s62.439024-37.463415 62.439024-81.170732c0-49.95122-18.731707-81.170732-62.439024-81.170732zM902.243902 374.634146H121.756098v243.512195h780.487804V374.634146zM658.731707 468.292683h137.365854c18.731707 0 37.463415 18.731707 37.463415 37.463415s-12.487805 31.219512-31.219513 37.463414H658.731707c-18.731707 0-37.463415-18.731707-37.463414-37.463414s12.487805-31.219512 37.463414-37.463415h137.365854-137.365854z m243.512195-399.609756H121.756098V312.195122h780.487804V68.682927z m-106.146341 81.170732c18.731707 0 37.463415 18.731707 37.463415 37.463414s-12.487805 31.219512-31.219513 37.463415H658.731707c-18.731707-6.243902-37.463415-18.731707-37.463414-37.463415s12.487805-31.219512 31.219512-37.463414H796.097561z" p-id="21299" fill="#1296db"></path></svg>