<?xml version="1.0" standalone="no"?><!DOCTYPE svg PUBLIC "-//W3C//DTD SVG 1.1//EN" "http://www.w3.org/Graphics/SVG/1.1/DTD/svg11.dtd"><svg t="1602210147958" class="icon" viewBox="0 0 1024 1024" version="1.1" xmlns="http://www.w3.org/2000/svg" p-id="21759" width="64" height="64" xmlns:xlink="http://www.w3.org/1999/xlink"><defs><style type="text/css"></style></defs><path d="M853.1 267.1H685.2V87.8h40v139.3h127.9z" fill="#1296db" p-id="21760"></path><path d="M873.1 618.5h-40V230.1L701.4 104.2H228v514.3h-40V104.2c0-22.1 17.9-40 40-40h489.4L873.1 213v405.5z" fill="#1296db" p-id="21761"></path><path d="M826.5 959.5H198.1c-38.6 0-70-31.4-70-70V610.1h728.4c22.1 0 40 17.9 40 40v239.4c0 38.7-31.4 70-70 70zM168.1 650.1v239.4c0 16.5 13.5 30 30 30h628.4c16.5 0 30-13.5 30-30V650.1H168.1z" fill="#1296db" p-id="21762"></path><path d="M128.063 610.429l59.499-106.048 34.884 19.572-59.5 106.048zM708.5 429.4H339.3c-11 0-20-9-20-20v-89.9c0-11 9-20 20-20h369.2c11 0 20 9 20 20v89.9c0 11-9 20-20 20z m-349.2-40h329.2v-49.9H359.3v49.9zM708.5 581.8H339.3c-11 0-20-9-20-20v-89.9c0-11 9-20 20-20h369.2c11 0 20 9 20 20v89.9c0 11-9 20-20 20z m-349.2-40h329.2v-49.9H359.3v49.9z" fill="#1296db" p-id="21763"></path><path d="M446.3 334.4h40v40h-40zM523.4 334.4h40v40h-40zM600.5 334.4h40v40h-40zM446.3 486.8h40v40h-40zM523.4 486.8h40v40h-40zM600.5 486.8h40v40h-40z" fill="#1296db" p-id="21764"></path><path d="M468.1 781.3l-55.8 15.5v21.3h-58.6v-35.8l56.6-14.7v-24.7h-88v-40.6h145.8v79z m-55.7 46v40h-58.6v-40h58.6z" fill="#1296db" p-id="21765"></path><path d="M530.84 844.082l160.098-146.056 26.96 29.552L557.8 873.634z" fill="#1296db" p-id="21766"></path><path d="M537.3 702.9h40v40h-40z" fill="#1296db" p-id="21767"></path><path d="M669.4 827.3h40v40h-40z" fill="#1296db" p-id="21768"></path></svg>