<?xml version="1.0" standalone="no"?><!DOCTYPE svg PUBLIC "-//W3C//DTD SVG 1.1//EN" "http://www.w3.org/Graphics/SVG/1.1/DTD/svg11.dtd"><svg t="1602209838537" class="icon" viewBox="0 0 1024 1024" version="1.1" xmlns="http://www.w3.org/2000/svg" p-id="13212" width="64" height="64" xmlns:xlink="http://www.w3.org/1999/xlink"><defs><style type="text/css"></style></defs><path d="M1024 789.6h-34.9V433.3h34.9v356.3z m-419.2 0h-34.9V433.3h34.9v356.3z" fill="#1296db" p-id="13213"></path><path d="M797 527.6c-111.8 0-227-31.4-227-87.3 0-115.3 454.1-115.3 454.1 0-0.1 55.9-115.4 87.3-227.1 87.3z m0-139.7c-125.8 0-192.1 34.9-192.1 52.4s66.4 52.4 192.1 52.4 192.1-34.9 192.1-52.4-66.4-52.4-192.1-52.4z m0 377.2c-111.8 0-227-31.4-227-87.3h34.9c0 17.5 66.4 52.4 192.1 52.4s192.1-34.9 192.1-52.4h34.9c0 55.9-115.3 87.3-227 87.3z m0-118.7c-111.8 0-227-31.4-227-87.3h34.9c0 17.5 66.4 52.4 192.1 52.4s192.1-34.9 192.1-52.4h34.9c0 55.8-115.3 87.3-227 87.3z m0 230.5c-111.8 0-227-31.4-227-87.3h34.9c0 17.5 66.4 52.4 192.1 52.4s192.1-34.9 192.1-52.4h34.9c0 55.9-115.3 87.3-227 87.3z" fill="#1296db" p-id="13214"></path><path d="M758.2 262.7h-39.6v-84.3H353.4v-33.3h403.9c0.5 0 0.9 0.3 0.9 0.7v116.9zM88.1 709.3h235.6v51.8H88.1v-51.8z" fill="#1296db" p-id="13215"></path><path d="M502.2 841.7H37.9V153.9h281.4l122.8 116.9h403v62.7h39.1s-0.3-99.6-0.6-99.6H455.7L338.2 120.5H0.6c-0.3 0-0.6 0.3-0.6 0.6v754.4c0 0.3 0.3 0.6 0.6 0.6h501.6v-34.4z" fill="#1296db" p-id="13216"></path></svg>