<?xml version="1.0" standalone="no"?><!DOCTYPE svg PUBLIC "-//W3C//DTD SVG 1.1//EN" "http://www.w3.org/Graphics/SVG/1.1/DTD/svg11.dtd"><svg t="1602209512186" class="icon" viewBox="0 0 1024 1024" version="1.1" xmlns="http://www.w3.org/2000/svg" p-id="6979" width="64" height="64" xmlns:xlink="http://www.w3.org/1999/xlink"><defs><style type="text/css"></style></defs><path d="M383.404077 701.610667s13.482667-190.293333 191.317334-191.317334h127.488V86.186667a85.333333 85.333333 0 0 0-85.333334-85.333334H86.102744a85.333333 85.333333 0 0 0-85.333333 85.333334v934.229333h191.317333v-127.488C188.502744 678.741333 383.404077 701.610667 383.404077 701.610667zM128.257411 127.658667h446.464v127.658666H128.257411z m0 318.805333v-127.488h446.464v127.488z" fill="#1296db" p-id="6980"></path><path d="M829.868077 765.269333s-24.405333-197.973333-191.317333-191.317333c0 0-189.098667 4.437333-191.317333 191.317333 0 0-187.733333-12.117333-191.317334 127.658667 0 153.6 127.488 127.488 127.488 127.488h510.122667s126.634667-3.925333 127.658667-127.488c6.144-158.037333-191.317333-127.658667-191.317334-127.658667z" fill="#1296db" p-id="6981"></path></svg>