<?xml version="1.0" standalone="no"?><!DOCTYPE svg PUBLIC "-//W3C//DTD SVG 1.1//EN" "http://www.w3.org/Graphics/SVG/1.1/DTD/svg11.dtd"><svg t="1602209727746" class="icon" viewBox="0 0 1024 1024" version="1.1" xmlns="http://www.w3.org/2000/svg" p-id="11541" width="64" height="64" xmlns:xlink="http://www.w3.org/1999/xlink"><defs><style type="text/css"></style></defs><path d="M991.957725 208.422913c-21.361517-123.012661-50.885947-152.309918-175.578878-174.136016C736.991776 20.395516 624.930537 12.429077 508.968455 12.429077c-114.940822 0-221.240847 7.486508-299.308877 21.047362C86.633614 54.854329 57.334311 84.392062 35.552216 209.054293c-28.877701 165.076686-29.313629 442.889993-0.944512 606.644567 21.302165 123.012661 50.839899 152.296615 175.577854 174.137039 79.583546 13.924127 191.884238 21.901823 308.084751 21.901823l0.017396 0c114.656343 0 220.747613-7.439436 298.69387-20.941961 123.042337-21.393239 152.35392-50.915623 174.107363-175.609577C1019.978918 650.082892 1020.370845 372.208187 991.957725 208.422913M960.848193 809.901831c-19.533892 111.791086-39.035038 131.506103-149.116179 150.646022-76.268034 13.201673-180.470281 20.464077-293.445332 20.464077l-0.017396 0c-114.51922 0-224.871537-7.800663-302.789141-21.421892C103.645057 940.000887 83.933109 920.466995 64.880171 810.474882c-27.872814-160.90876-27.451212-433.902294 0.946558-596.143399C85.359598 102.570073 104.860744 82.858126 214.91221 63.74686c76.402087-13.277398 180.826392-20.596084 294.059316-20.596084 114.251114 0 224.393653 7.800663 302.130132 21.403472C922.863067 84.11577 942.572968 103.633289 961.715957 213.669404 989.61947 374.58942 989.228567 647.615701 960.848193 809.901831" p-id="11542" fill="#1296db"></path><path d="M570.048579 306.966277c6.265704 6.004761 79.636758 70.498634 79.636758 70.498634s43.6041 43.082214-11.750625 78.329996l0 2.611477c0 0 35.510772 0 61.36051-41.777499 9.661034-16.71059 21.671579-23.760147 39.163975-26.110681-1.565658-2.610454-14.620999-6.004761-30.02585-2.610454 1.303692-19.583011-3.394307-37.337373-33.94409-63.970964-34.465976-29.244045-73.109088-62.664202-73.109088-62.664202s-32.115442-31.071669-30.026874-65.276702c0 0-24.022113 15.143908-28.721135 62.665225-0.260943 6.266727-9.661034 32.376385-30.026874 35.248805 0 4.700045 0 5.222955 0 5.222955s21.933545-0.522909 39.164998-15.666818C555.688523 293.649993 563.520909 300.961516 570.048579 306.966277zM794.597775 532.821211c-11.712763-4.737908-28.721135-6.15621-32.639375-6.52767l-308.608683 0c1.689479-3.034103 5.615904-11.694343 7.03523-28.721135 2.610454-27.154453-32.638351-56.137555-32.638351-56.137555s-33.943067-27.677363-45.692668-37.860283c-10.443863-10.181897-24.02109-21.410636-32.637328-37.860283-8.617261-16.448624-3.133364-36.031635 9.138124-49.609884 15.926738-14.882965 36.554544-11.748578 36.554544-11.748578s51.176566 45.953611 101.830223 91.38636c59.531861 70.497611-14.360056 101.830223-14.360056 101.830223l0 5.221932c35.771715-3.393283 65.275679-27.676339 83.551928-61.359486 28.199249-59.009975-30.026874-103.135962-30.026874-103.135962s-58.225099-48.042179-75.719542-63.96994-36.031635-34.986839-40.470737-58.748009c-1.043772-71.803349 63.970964-66.581418 63.970964-66.581418l0-5.221932c-42.038442-0.261966-67.62519 10.966773-93.997837 44.387953-44.648896 62.141292-6.265704 105.223506 1.305739 112.274086-4.700045-0.522909-38.382169-8.356318-66.581418 30.026874-43.082214 53.526077 2.611477 92.692099 2.611477 92.692099s35.248805 30.549783 66.580394 57.44227c26.523073 22.288632 27.740808 40.760332 27.528983 45.693692l-182.885284 0 0 41.775452 523.511171 0c0 0 52.221362-3.133364 70.499657 53.528124 2.349511 14.098089 12.271488 59.006905-39.166021 87.470167-16.213263 9.117658-43.208081 10.592242-59.826574 3.28072 3.178389-6.367011 6.172583-13.106506 8.911974-20.252253 7.832386-21.215184 18.929118-63.644529 16.971533-90.080621L239.752967 602.016153c0 0-3.263323 93.671403 63.96994 161.882947 25.784246 24.803919 54.831816 44.061518 75.719542 50.916647 0 14.034645 0 24.803919 0 24.803919l238.910275 0 0-24.245194c0 0 21.63474-7.462972 24.804942-9.698896 0.019443-0.232291 0.037862-0.48914 0.055259-0.76134 7.68503-3.602038 40.240493-20.394493 68.941162-58.222029 11.208273 4.669346 59.775408 21.782096 108.552322-8.901741 23.500227-14.883989 53.004191-46.216601 53.527101-96.609315C873.971543 611.674117 859.611487 557.102221 794.597775 532.821211zM643.165854 777.260409c-0.005117-0.194428-0.007163-0.308015-0.007163-0.308015l0-31.428803c8.931416-7.893784 52.311413-49.396014 58.748009-116.094088 14.033621 0 30.02585 0 30.02585 0S726.76383 726.707037 643.165854 777.260409z" p-id="11543" fill="#1296db"></path></svg>