<?xml version="1.0" standalone="no"?><!DOCTYPE svg PUBLIC "-//W3C//DTD SVG 1.1//EN" "http://www.w3.org/Graphics/SVG/1.1/DTD/svg11.dtd"><svg t="1602210306867" class="icon" viewBox="0 0 1232 1024" version="1.1" xmlns="http://www.w3.org/2000/svg" p-id="28892" width="77" height="64" xmlns:xlink="http://www.w3.org/1999/xlink"><defs><style type="text/css"></style></defs><path d="M873.130667 509.76237c-141.482667 0-256.606815 115.124148-256.606815 256.606815s115.124148 256.606815 256.606815 256.606815c141.520593 0 256.606815-115.124148 256.606814-256.606815s-115.086222-256.606815-256.606814-256.606815z m0 480.559408c-123.486815 0-223.93363-100.465778-223.93363-223.952593s100.446815-223.952593 223.93363-223.952592 223.952593 100.465778 223.952592 223.952592-100.465778 223.952593-223.952592 223.952593z" p-id="28893" fill="#1296db"></path><path d="M1055.611259 635.524741a16.308148 16.308148 0 0 0-15.378963 17.21837c0.18963 2.920296-4.077037 10.315852-21.105777 19.550815-30.321778 16.384-24.576 32.749037-15.03763 59.790222 4.778667 13.653333-21.598815 62.558815-39.006815 83.588741a102.893037 102.893037 0 0 1-1.156741-13.406815v-9.197037c0.113778-26.889481-0.18963-31.099259-10.145185-69.745778a15.947852 15.947852 0 0 0-3.697778-6.807703l-19.26637-21.522963a16.858074 16.858074 0 0 0-6.030222-4.247704c-4.077037-1.630815-40.334222-16.19437-55.751111-18.204445-1.194667-2.692741 1.232593-12.136296 7.073185-14.904888 2.484148-1.21363 3.621926-1.042963 6.409481-0.720593 3.527111 0.398222 11.813926 1.365333 18.526815-5.138963 7.585185-7.338667 7.149037-17.408 5.726815-33.242074-1.21363-13.899852-6.049185-24.424296-14.487704-31.232-13.12237-10.676148-29.771852-8.685037-40.846222-7.300741-2.597926 0.284444-4.949333 0.625778-6.921481 0.625778-18.375111 0-26.112 9.955556-31.573334 27.477333-0.075852-1.34637-0.18963-2.711704-0.246518-4.020148a16.365037 16.365037 0 0 0-30.511408-7.092148l-15.644444 27.932444c-0.037926 0.018963-2.275556 3.318519-12.344889 7.661037 1.422222-7.661037 4.835556-18.75437 9.02637-28.387555a16.365037 16.365037 0 0 0-29.999407-13.027556c-10.031407 23.172741-19.095704 53.968593-4.911407 69.252741 4.266667 4.551111 14.032593 11.358815 31.269925 5.290667 12.344889-4.380444 20.707556-9.348741 26.396445-14.146371 0.512 1.554963 1.042963 2.389333 1.422222 3.090963 1.953185 3.489185 12.724148 20.271407 29.108148 17.995852 7.224889-1.118815 16.611556-6.087111 20.309334-23.400296l1.460148-6.674963c3.015111-14.373926 5.916444-27.894519 6.238815-29.316741 3.072 0 6.807704-0.379259 10.808888-0.891259 4.873481-0.549926 13.994667-1.706667 16.384 0.227556 0.70163 0.587852 2.010074 3.072 2.541037 8.685037 0.113778 1.156741 0.18963 2.123852 0.246519 3.034074a42.856296 42.856296 0 0 0-12.534519 3.792592c-19.171556 9.216-27.439407 31.250963-25.6 47.331556 1.668741 13.994667 10.619259 24.367407 23.305482 27.079111 11.567407 2.541037 36.977778 12.193185 49.398518 17.08563l14.089482 15.68237c8.248889 32.123259 8.248889 34.322963 8.135111 57.590518v9.576297c0.303407 18.773333 3.77363 42.837333 18.735407 50.801777 3.337481 1.72563 6.84563 2.635852 10.410667 2.635852 4.664889 0 9.424593-1.460148 13.899852-4.361481 19.361185-12.686222 73.936593-92.273778 60.548741-130.313482-2.123852-6.030222-4.645926-13.293037-5.461334-17.161481 1.005037-0.70163 2.654815-1.668741 5.271704-3.090963 26.377481-14.298074 39.23437-31.137185 38.134519-50.119111a16.308148 16.308148 0 0 0-17.218371-15.322074zM784.251259 737.924741c-4.873481-1.839407-12.98963-4.93037-14.885926-6.485334a82.678519 82.678519 0 0 0-18.109629-13.805037c-3.034074-1.839407-6.33363-3.792593-10.733037-7.262814a19.816296 19.816296 0 0 0-20.385186-2.901334c-5.385481 2.313481-18.10963 7.812741-23.058962 63.734519-0.758519 9.007407 5.878519 16.896 14.848 17.711407 9.348741 0.606815 16.914963-5.878519 17.673481-14.848 0.891259-9.955556 2.578963-20.764444 4.342519-28.747852 0.227556 0.113778 0.398222 0.246519 0.549925 0.341334 4.380444 2.635852 7.300741 4.342519 11.794963 8.874666 6.276741 6.276741 15.985778 9.955556 26.339556 13.918815 1.099852 0.398222 2.332444 0.910222 3.621926 1.403259-10.884741 10.410667-18.887111 23.324444-34.569482 69.423408a16.308148 16.308148 0 1 0 30.852741 10.524444c16.384-48.090074 21.598815-52.508444 31.023408-60.472889l5.233777-4.513185c8.912593-8.040296 8.874667-16.725333 8.021334-21.162667-2.616889-14.241185-17.142519-19.797333-32.559408-25.73274zM657.028741 328.912593V67.602963A65.384296 65.384296 0 0 0 591.720296 2.275556H232.410074a65.384296 65.384296 0 0 0-65.327407 65.327407v261.30963c0 36.02963 29.278815 65.327407 65.327407 65.327407h161.867852v65.991111h-62.350222a16.346074 16.346074 0 0 0 0 32.654222h160.274963a16.308148 16.308148 0 0 0 0-32.654222h-65.270519v-65.991111h164.788148a65.34637 65.34637 0 0 0 65.308445-65.327407zM232.410074 34.929778h359.310222c17.976889 0 32.673185 14.639407 32.673185 32.673185v228.655407H199.755852V67.602963c0-18.033778 14.65837-32.673185 32.654222-32.673185z m359.329185 326.656H232.410074a32.711111 32.711111 0 0 1-32.673185-32.673185h424.656592a32.711111 32.711111 0 0 1-32.654222 32.673185zM932.67437 165.584593h2.23763a67.318519 67.318519 0 0 0 48.791704 48.810666v2.23763a16.308148 16.308148 0 1 0 32.654222 0v-2.23763a67.318519 67.318519 0 0 0 51.029333-65.137778 67.432296 67.432296 0 0 0-67.356444-67.375407A67.318519 67.318519 0 0 0 934.874074 132.93037h-2.23763a16.346074 16.346074 0 0 0 0.037926 32.654223z m67.375408-51.029334a34.702222 34.702222 0 0 1 0 69.423408c-19.13363 0-34.721185-15.568593-34.721185-34.702223s15.606519-34.721185 34.721185-34.721185zM831.563852 165.584593h25.258667c9.064296 0 16.308148-7.319704 16.308148-16.327112a16.289185 16.289185 0 0 0-16.308148-16.327111h-25.258667a16.308148 16.308148 0 0 0-16.308148 16.327111 16.289185 16.289185 0 0 0 16.308148 16.327112zM739.384889 165.584593h16.308148c9.064296 0 16.308148-7.319704 16.308148-16.327112a16.289185 16.289185 0 0 0-16.308148-16.327111h-16.308148a16.327111 16.327111 0 1 0 0 32.654223zM1000.049778 345.239704a16.308148 16.308148 0 0 0-16.346074 16.346074v16.327111a16.308148 16.308148 0 1 0 32.654222 0v-16.327111a16.308148 16.308148 0 0 0-16.308148-16.346074zM1016.376889 278.736593a16.308148 16.308148 0 0 0-16.308148-16.327112 16.308148 16.308148 0 0 0-16.346074 16.327112v20.707555a16.308148 16.308148 0 1 0 32.654222 0v-20.707555zM381.44 819.2h-2.218667a67.204741 67.204741 0 0 0-48.810666-48.810667v-2.237629a16.308148 16.308148 0 1 0-32.63526 0v2.237629c-29.221926 7.35763-51.048296 33.640296-51.048296 65.137778a67.432296 67.432296 0 0 0 67.39437 67.375408A67.299556 67.299556 0 0 0 379.259259 851.873185h2.218667a16.327111 16.327111 0 1 0-0.037926-32.673185z m-67.356444 51.029333a34.740148 34.740148 0 0 1-34.721186-34.702222c0-19.13363 15.587556-34.721185 34.721186-34.721185s34.702222 15.587556 34.702222 34.721185-15.568593 34.702222-34.702222 34.702222zM482.569481 819.2h-25.277629a16.308148 16.308148 0 1 0 0 32.635259h25.277629a16.308148 16.308148 0 1 0 0-32.635259zM574.767407 819.2h-16.308148a16.308148 16.308148 0 0 0 0 32.635259h16.308148c8.988444 0 16.327111-7.319704 16.327112-16.327111s-7.35763-16.308148-16.327112-16.308148zM314.083556 639.525926a16.308148 16.308148 0 0 0 16.308148-16.308148v-16.346074a16.308148 16.308148 0 1 0-32.63526 0v16.346074c0 9.007407 7.281778 16.308148 16.327112 16.308148zM297.756444 706.029037a16.308148 16.308148 0 1 0 32.63526 0V685.321481a16.308148 16.308148 0 1 0-32.63526 0v20.707556z" p-id="28894" fill="#1296db"></path></svg>