<?xml version="1.0" standalone="no"?><!DOCTYPE svg PUBLIC "-//W3C//DTD SVG 1.1//EN" "http://www.w3.org/Graphics/SVG/1.1/DTD/svg11.dtd"><svg t="1602209582952" class="icon" viewBox="0 0 1079 1024" version="1.1" xmlns="http://www.w3.org/2000/svg" p-id="7914" width="67.4375" height="64" xmlns:xlink="http://www.w3.org/1999/xlink"><defs><style type="text/css"></style></defs><path d="M1002.530781 72.082888h-925.25549v-34.157653A38.36336 38.36336 0 0 0 38.692502 0.000731 38.326789 38.326789 0 0 0 0.109714 37.925235v948.149164A38.326789 38.326789 0 0 0 38.692502 1023.998903a38.326789 38.326789 0 0 0 38.582789-37.924504v-231.350444h346.989094v113.810083h424.227814v-113.810083h154.221439a76.799863 76.799863 0 0 0 77.129005-75.849007V147.931896a76.799863 76.799863 0 0 0-77.311862-75.849008z m-830.169946 136.082043a33.389655 33.389655 0 0 1-33.389655-33.389655 33.389655 33.389655 0 0 1 33.389655-33.389654 33.389655 33.389655 0 0 1 33.389655 33.389654 33.389655 33.389655 0 0 1-33.206798 33.389655z m328.739984 622.444603h-38.546216V716.799451h38.582788z m77.129006 0h-38.582789V716.799451h38.582789z m77.092433 0h-38.546217V716.799451h38.546217z m77.129005 0h-38.546216V716.799451h38.546216z m77.129006 0h-38.582789V716.799451h38.582789z m10.971409-354.742224a76.799863 76.799863 0 0 1-77.129006 75.849008h-115.675222a76.799863 76.799863 0 0 1-77.129005-75.849008v-37.924503h-138.97118a74.093582 74.093582 0 0 1-73.142727 56.868469 76.799863 76.799863 0 0 1-77.092433-75.849007 76.799863 76.799863 0 0 1 77.092433-75.849007 74.130153 74.130153 0 0 1 73.142727 56.905041h138.97118V362.093799a76.799863 76.799863 0 0 1 77.129005-75.849007h115.675222a76.799863 76.799863 0 0 1 77.129006 75.849007z m142.116317 177.663683a33.353083 33.353083 0 0 1-33.389654-33.389655 33.389655 33.389655 0 0 1 33.389654-33.389654 33.389655 33.389655 0 0 1 33.389655 33.389654 33.389655 33.389655 0 0 1-33.243369 33.24337z" fill="#1296db" p-id="7915"></path></svg>