<?xml version="1.0" standalone="no"?><!DOCTYPE svg PUBLIC "-//W3C//DTD SVG 1.1//EN" "http://www.w3.org/Graphics/SVG/1.1/DTD/svg11.dtd"><svg t="1602211804969" class="icon" viewBox="0 0 1024 1024" version="1.1" xmlns="http://www.w3.org/2000/svg" p-id="40065" width="64" height="64" xmlns:xlink="http://www.w3.org/1999/xlink"><defs><style type="text/css"></style></defs><path d="M509.50656 508.53888m-488.96 0a488.96 488.96 0 1 0 977.92 0 488.96 488.96 0 1 0-977.92 0Z" fill="#6CA8FF" p-id="40066"></path><path d="M808.84736 365.24544l3.66592 13.48096h-37.41696l-12.60544-52.8128c-9.66656-40.51968-45.62432-73.36448-80.32768-73.36448h-338.8416c-34.69312 0-70.15936 32.84992-79.21152 73.36448l-19.61984 87.84384h-38.57408l3.456-13.47584h-38.12352l-3.90656 13.47584-6.4 22.10816h78.61248l-12.6464 56.61696H144.55296l-6.4 22.10816-3.90656 13.48096h42.35264l3.46112-13.48096h41.9072l-11.79648 52.80768c-9.05216 40.51968 22.59456 73.3696 70.69184 73.3696h469.67296c48.10752 0 79.24736-32.84992 69.5808-73.3696l-20.9664-87.84896h40.75008l3.66592 13.48096h41.19552l-4.11136-13.48096-6.7328-22.10816h-80.03584l-13.50656-56.60672h76.288l-6.7328-22.10816-4.11136-13.48096h-36.97152z" fill="#FFFFFF" p-id="40067"></path><path d="M744.79104 658.688H275.11296c-29.63968 0-55.71072-10.94144-72.23808-29.96736v33.52064h0.2816c2.4576 31.77984 31.26784 55.32672 71.9616 55.32672h469.67296c40.69888 0 69.1456-23.54688 71.12192-55.32672h0.22016v-32.92672c-16.33792 18.65728-42.03008 29.37344-71.34208 29.37344z m-383.62624 31.44192a15.36 15.36 0 0 1-15.36 15.36h-37.12a15.36 15.36 0 0 1-15.36-15.36v-2.56a15.36 15.36 0 0 1 15.36-15.36h37.12a15.36 15.36 0 0 1 15.36 15.36v2.56z m103.92064 0a15.36 15.36 0 0 1-15.36 15.36h-37.12a15.36 15.36 0 0 1-15.36-15.36v-2.56a15.36 15.36 0 0 1 15.36-15.36h37.12a15.36 15.36 0 0 1 15.36 15.36v2.56z m103.9104 0a15.36 15.36 0 0 1-15.36 15.36h-37.12a15.36 15.36 0 0 1-15.36-15.36v-2.56a15.36 15.36 0 0 1 15.36-15.36h37.12a15.36 15.36 0 0 1 15.36 15.36v2.56z m103.9104 0a15.36 15.36 0 0 1-15.36 15.36h-37.12a15.36 15.36 0 0 1-15.36-15.36v-2.56a15.36 15.36 0 0 1 15.36-15.36h37.12a15.36 15.36 0 0 1 15.36 15.36v2.56z m103.91552 0a15.36 15.36 0 0 1-15.36 15.36h-37.12a15.36 15.36 0 0 1-15.36-15.36v-2.56a15.36 15.36 0 0 1 15.36-15.36h37.12a15.36 15.36 0 0 1 15.36 15.36v2.56z" fill="#FFFFFF" p-id="40068"></path><path d="M319.36512 487.9616v48.11264H302.7456V407.35232h36.56192c13.91104 0 24.69888 3.3536 32.36864 10.05568s11.50976 16.28672 11.50976 28.75392c0 12.63104-4.49024 22.86592-13.46048 30.70976-8.98048 7.83872-20.1984 11.54048-33.65888 11.09504h-16.70144z m0-65.98656v51.35872h15.37024c10.1376 0 17.83808-2.28352 23.10144-6.85568 5.26848-4.57216 7.90016-11.12064 7.90016-19.65568 0-16.5632-9.80992-24.84736-29.41952-24.84736h-16.95232zM398.55616 473.25184c0-20.77696 5.632-37.31456 16.8704-49.6128 11.24864-12.29824 26.48064-18.45248 45.71136-18.45248 17.88928 0 32.30208 6.01088 43.20768 18.03264 10.92096 12.02176 16.36864 27.6736 16.36864 46.9504 0 20.88448-5.59104 37.44768-16.77824 49.69472-11.19232 12.24704-26.14784 18.36544-44.88192 18.36544-18.2784 0-32.94208-6.01088-43.96032-18.03264-11.02848-12.01664-16.5376-27.66336-16.5376-46.94528z m17.44896-1.3312c0 15.56992 3.97824 28.04736 11.9296 37.44256 7.95136 9.38496 18.31936 14.08 31.11936 14.08 13.74208 0 24.52992-4.50048 32.36864-13.50656 7.83872-9.00096 11.76064-21.59104 11.76064-37.76512 0-16.62464-3.84-29.44512-11.50976-38.4768s-18.19136-13.54752-31.5392-13.54752c-13.12768 0-23.77216 4.76672-31.90784 14.29504-8.1408 9.52832-12.22144 22.02112-12.22144 37.4784zM639.55456 536.07424h-19.61472l-21.35552-35.73248c-4.26496-7.14752-8.17664-12.0064-11.71968-14.58176s-7.7824-3.8656-12.70784-3.8656h-11.97056v54.17984h-16.61952V407.35232h39.22432c12.5184 0 22.3232 3.0208 29.41952 9.05728 7.0912 6.0416 10.63424 14.4896 10.63424 25.344 0 17.83808-9.52832 29.41952-28.58496 34.7392v0.41472c3.54304 1.49504 6.6048 3.63008 9.18016 6.4s5.9136 7.51104 10.01472 14.208l24.09984 38.55872z m-77.36832-114.18112v45.45536h19.61472c7.58784 0 13.75232-2.21696 18.48832-6.65088 4.736-4.4288 7.10656-10.24512 7.10656-17.44896 0-6.70208-2.16064-11.93984-6.48704-15.70816-4.32128-3.76832-10.60864-5.65248-18.86208-5.65248h-19.86048zM729.71776 422.144h-37.1456v113.93024h-16.70656V422.144h-36.98176v-14.79168h90.8288v14.79168z" fill="#6CA8FF" p-id="40069"></path></svg>