<?xml version="1.0" standalone="no"?><!DOCTYPE svg PUBLIC "-//W3C//DTD SVG 1.1//EN" "http://www.w3.org/Graphics/SVG/1.1/DTD/svg11.dtd"><svg t="1602211447719" class="icon" viewBox="0 0 1077 1024" version="1.1" xmlns="http://www.w3.org/2000/svg" p-id="38976" width="67.3125" height="64" xmlns:xlink="http://www.w3.org/1999/xlink"><defs><style type="text/css"></style></defs><path d="M1069.594947 825.344c4.904421 14.928842 8.299789 30.450526 8.29979 46.942316C1077.894737 956.092632 1008.855579 1024 923.863579 1024H153.923368C68.985263 1024 0 956.092632 0 872.286316c0-16.437895 3.287579-32.013474 8.192-46.888421l130.748632-739.974737A98.842947 98.842947 0 0 1 233.633684 0h610.681263a98.735158 98.735158 0 0 1 94.261895 83.213474l131.018105 742.130526zM188.631579 808.421053a80.842105 80.842105 0 0 0 0 161.68421h700.631579a80.842105 80.842105 0 0 0 0-161.68421h-700.631579z m220.914526-371.280842c-47.535158 0-86.177684 33.953684-86.177684 75.991578 0 41.930105 38.642526 75.937684 86.177684 75.937685h258.694737c47.750737 0 86.285474-33.953684 86.285474-75.991579 0-41.930105-38.534737-75.937684-86.231579-75.937684C668.294737 374.406737 610.411789 323.368421 538.947368 323.368421c-71.464421 0-129.401263 51.038316-129.401263 113.77179zM835.368421 916.210526a26.947368 26.947368 0 1 1 0-53.894737 26.947368 26.947368 0 0 1 0 53.894737z" fill="#1296db" p-id="38977"></path></svg>