<?xml version="1.0" standalone="no"?><!DOCTYPE svg PUBLIC "-//W3C//DTD SVG 1.1//EN" "http://www.w3.org/Graphics/SVG/1.1/DTD/svg11.dtd"><svg t="1600256601025" class="icon" viewBox="0 0 1037 1024" version="1.1" xmlns="http://www.w3.org/2000/svg" p-id="4755" xmlns:xlink="http://www.w3.org/1999/xlink" width="64.8125" height="64"><defs><style type="text/css"></style></defs><path d="M458.555787 658.923234l75.68168 0 0 75.68168-75.68168 0 0-75.68168Z" fill="#ffffff" p-id="4756"></path><path d="M458.555787 356.196515l75.68168 0 0 227.046063-75.68168 0 0-227.046063Z" fill="#ffffff" p-id="4757"></path><path d="M585.111135 812.991192 115.482151 812.991192 493.215168 158.983921 750.147912 603.833545 793.011138 549.510312 493.215168 30.447453 4.113691 877.277334 534.385846 877.277334Z" fill="#ffffff" p-id="4758"></path><path d="M993.441007 839.950194c-20.428262-35.390022-8.157797-80.767512 27.446096-101.411691l-38.267559-66.306148c-10.939143 6.420223-23.685445 10.083659-37.244252 10.083659-40.906665 0-74.083276-33.392528-74.083276-74.584696l-76.605725 0c0.097214 12.723789-3.044336 25.589818-9.893324 37.386492-20.405749 35.437094-65.878406 47.446615-101.552907 26.945699l-38.291095 66.330708c11.035334 6.231935 20.59813 15.413038 27.350928 27.184129 20.431332 35.365462 8.206916 80.648808-27.253714 101.3155l38.288025 66.330708c10.894118-6.374174 23.547299-9.989515 37.055964-9.989515 40.810474 0 73.869405 33.154098 74.083276 74.156954l76.604702 0c-0.047072-12.58155 3.13848-25.305339 9.893324-36.983309 20.405749-35.366486 65.736167-47.399543 101.363595-27.04189l38.292118-66.306148C1009.662457 860.807221 1000.195851 851.6517 993.441007 839.950194zM832.952826 881.474936c-43.568285 0-78.911234-35.293831-78.911234-78.911234 0-43.570331 35.317367-78.912257 78.911234-78.912257 43.572378 0 78.914304 35.341926 78.914304 78.912257C911.86713 846.180082 876.546693 881.474936 832.952826 881.474936z" fill="#ffffff" p-id="4759"></path></svg>