<?xml version="1.0" standalone="no"?><!DOCTYPE svg PUBLIC "-//W3C//DTD SVG 1.1//EN" "http://www.w3.org/Graphics/SVG/1.1/DTD/svg11.dtd"><svg t="1599101502198" class="icon" viewBox="0 0 1024 1024" version="1.1" xmlns="http://www.w3.org/2000/svg" p-id="10484" xmlns:xlink="http://www.w3.org/1999/xlink" width="64" height="64"><defs><style type="text/css"></style></defs><path d="M988.891429 764.342857L615.131429 116.845714a124.342857 124.342857 0 0 0-215.405715 0L25.965714 764.342857A124.342857 124.342857 0 0 0 133.668571 950.857143h747.52a124.342857 124.342857 0 0 0 107.702858-186.514286z m-45.531429 98.011429a71.131429 71.131429 0 0 1-62.171429 36.571428H133.668571a72.045714 72.045714 0 0 1-62.354285-107.885714L445.074286 143.177143a71.862857 71.862857 0 0 1 124.525714 0l373.76 647.314286a71.131429 71.131429 0 0 1 0 71.862857z" p-id="10485" fill="#ffffff"></path><path d="M488.411429 662.125714a18.285714 18.285714 0 0 0 18.285714 18.285715 18.285714 18.285714 0 0 0 18.285714-18.285715L548.571429 329.142857a42.605714 42.605714 0 0 0 1.28-9.691428 42.057143 42.057143 0 1 0-84.114286 0 42.605714 42.605714 0 0 0 1.097143 9.691428zM507.428571 711.68a43.154286 43.154286 0 1 0 42.605715 42.971429 42.971429 42.971429 0 0 0-42.605715-42.971429z" p-id="10486" fill="#ffffff"></path></svg>