<?xml version="1.0" standalone="no"?><!DOCTYPE svg PUBLIC "-//W3C//DTD SVG 1.1//EN" "http://www.w3.org/Graphics/SVG/1.1/DTD/svg11.dtd"><svg t="1599100884781" class="icon" viewBox="0 0 1109 1024" version="1.1" xmlns="http://www.w3.org/2000/svg" p-id="7528" xmlns:xlink="http://www.w3.org/1999/xlink" width="69.3125" height="64"><defs><style type="text/css"></style></defs><path d="M1100.8 46.933333l-409.6 938.666667c-21.333333 21.333333-55.466667 21.333333-76.8 0l-243.2-273.066667c-8.533333-8.533333-17.066667-25.6-17.066667-38.4 0-12.8 4.266667-29.866667 17.066667-38.4L900.266667 183.466667 268.8 593.066667 8.533333 384C0 375.466667 0 362.666667 0 349.866667c0-17.066667 12.8-34.133333 29.866667-42.666667L1070.933333 4.266667c4.266667-4.266667 8.533333-4.266667 12.8-4.266667 12.8 0 25.6 12.8 25.6 25.6 0 8.533333-4.266667 17.066667-8.533333 21.333333zM256 750.933333l115.2 119.466667c8.533333 8.533333 12.8 17.066667 12.8 25.6 0 8.533333-4.266667 17.066667-8.533333 25.6L256 1011.2c-12.8 12.8-51.2 17.066667-64 0v-264.533333c17.066667-12.8 51.2-8.533333 64 4.266666z m-17.066667 196.266667c8.533333 4.266667 25.6 4.266667 29.866667 0l59.733333-46.933333c8.533333-8.533333 8.533333-4.266667 0-8.533334l-59.733333-64c-8.533333-8.533333-25.6-21.333333-29.866667-17.066666v136.533333z m0 0" p-id="7529" fill="#e6e6e6"></path></svg>