<?xml version="1.0" standalone="no"?><!DOCTYPE svg PUBLIC "-//W3C//DTD SVG 1.1//EN" "http://www.w3.org/Graphics/SVG/1.1/DTD/svg11.dtd"><svg t="1599101069378" class="icon" viewBox="0 0 1024 1024" version="1.1" xmlns="http://www.w3.org/2000/svg" p-id="8909" xmlns:xlink="http://www.w3.org/1999/xlink" width="64" height="64"><defs><style type="text/css"></style></defs><path d="M718.316 446.101c7.047-4.128 11.376-9.765 13.087-17.114 1.711-7.248 0.906-14.396-2.617-21.443-4.128-6.443-9.765-10.671-17.114-12.685-7.248-2.013-14.396-1.309-21.443 2.215l-152.317 88.39c-8.701-4.991-18.919-8.437-29.807-9.677 12.793 2.53 7.961 1.724 2.726 1.724-15.202 0-28.289 5.537-39.363 16.611-11.074 11.074-16.611 24.262-16.611 39.363 0 15.202 5.537 28.289 16.611 39.363 11.074 11.074 24.262 16.611 39.363 16.611 15.201 0 28.289-5.537 39.363-16.611 11.074-11.074 16.611-24.262 16.611-39.363l151.511-87.384zM511.737 85.494c-61.813 0-119.9 11.779-174.163 35.437-54.262 23.658-101.679 55.772-142.25 96.242-40.571 40.571-72.484 87.987-95.84 142.25-23.356 54.262-35.034 112.35-35.034 174.162 0 38.557 4.631 76.007 13.993 112.451 9.363 36.443 23.054 71.075 41.175 103.692 18.121 32.718 40.068 62.92 66.041 90.605 25.973 27.685 55.571 51.745 88.793 72.182 6.443 4.128 13.389 5.235 21.040 3.523 7.55-1.711 13.389-5.839 17.517-12.282s5.235-13.389 3.524-21.040c-1.711-7.55-5.839-13.389-12.282-17.517-23.96-15.201-45.705-32.215-65.236-51.242-19.53-18.926-36.947-39.564-52.047-61.712l29.799-17.517c6.443-3.524 10.671-9.060 12.685-16.611 2.013-7.55 1.007-14.597-3.020-21.040-3.524-7.047-9.061-11.477-16.611-13.591-7.55-2.013-14.597-1.007-21.040 3.020l-29.799 16.913c-10.47-21.544-18.926-44.497-25.369-68.759-6.443-24.262-10.47-48.826-12.282-73.994h30.604c8.154 0 14.9-2.819 20.134-8.356 5.235-5.537 7.852-12.081 7.852-19.732 0-7.55-2.617-14.195-7.852-19.732-5.235-5.537-11.98-8.356-20.134-8.356h-30.605c1.711-25.671 5.94-50.638 12.685-74.799 6.745-24.262 15.604-47.417 26.678-69.564l27.987 16.611c1.711 1.208 3.926 2.013 6.544 2.618 2.617 0.604 5.134 0.906 7.45 0.906 4.631 0 9.161-1.208 13.591-3.524 4.329-2.315 7.752-5.839 10.067-10.47 4.128-6.443 5.134-13.389 3.020-21.040-2.013-7.55-6.242-13.087-12.685-16.611l-27.987-16.611c13.993-20.436 29.799-39.363 47.215-56.88 17.517-17.517 36.745-33.222 57.786-47.215l15.705 27.181c2.315 4.631 5.738 8.154 10.067 10.47 4.329 2.315 9.161 3.524 14.396 3.524 2.315 0 4.631-0.302 7.047-0.906 2.315-0.604 4.631-1.409 7.047-2.618 6.443-4.127 10.671-9.765 12.685-17.114 2.013-7.248 1.007-14.396-3.020-21.443l-15.705-27.181c21.544-10.47 44.195-18.826 67.853-24.967s48.021-10.369 73.088-12.685v35.034c0 8.154 2.819 14.9 8.356 20.134 5.537 5.235 12.081 7.852 19.732 7.852 8.154 0 14.899-2.617 20.134-7.852 5.235-5.235 7.852-11.98 7.852-20.134v-35.034c25.671 1.711 50.638 5.94 74.799 12.685 24.161 6.745 47.417 15.302 69.564 25.772l-15.705 26.477c-3.523 7.047-4.228 14.195-2.215 21.443 2.013 7.248 6.242 12.987 12.685 17.114 2.315 1.208 4.631 2.013 7.047 2.617 2.315 0.604 4.631 0.906 7.047 0.906 4.631 0 9.161-1.208 13.591-3.523 4.329-2.315 8.054-5.839 10.973-10.47l14.899-26.275c20.437 13.993 39.363 29.799 56.88 47.215 44.632 44.614 78.742 99.751 98.288 161.371l-77.349-88.685c-7.047 3.524-11.376 9.061-13.087 16.611s-0.906 14.598 2.618 21.040c2.919 4.631 6.544 8.154 10.973 10.47 4.329 2.315 8.859 3.524 13.591 3.524 2.315 0 4.631-0.302 7.047-0.906 2.315-0.604 4.631-1.409 7.047-2.617l26.275-14.899c10.47 21.544 19.128 44.497 25.772 68.759s10.973 49.128 12.685 74.799h-30.603c-7.55 0-14.195 2.819-19.732 8.356-5.537 5.537-8.356 12.081-8.356 19.732s2.819 14.195 8.356 19.732c5.537 5.537 12.081 8.356 19.732 8.356h30.604c-1.711 25.067-5.738 49.43-11.779 73.088-6.141 23.658-14.396 46.208-24.967 67.853l-27.987-15.705c-7.047-4.128-14.195-5.134-21.443-3.020-7.248 2.013-12.987 6.544-17.114 13.591-3.523 6.443-4.329 13.389-2.617 21.040 1.711 7.55 6.141 13.087 13.087 16.611l27.987 16.611c-15.705 22.752-33.725 43.893-53.86 63.423-20.134 19.53-42.484 36.947-66.947 52.047-6.443 4.128-10.47 9.765-12.282 17.114-1.711 7.248-0.604 14.396 3.524 21.443 2.315 4.128 5.738 7.248 10.067 9.664 4.329 2.315 8.859 3.523 13.591 3.523 2.315 0 4.832-0.302 7.45-0.906 2.617-0.604 5.134-1.711 7.45-3.523 33.222-20.436 63.021-44.497 89.296-72.182 26.275-27.685 48.625-57.886 66.947-90.605 18.423-32.718 32.416-67.35 41.98-104.196 9.665-36.745 14.396-75.001 14.396-114.666 0-61.309-11.678-118.994-35.034-173.257-23.356-54.262-55.269-101.679-95.84-142.25-40.571-40.571-87.987-72.685-142.25-96.243-54.362-23.959-112.45-35.737-174.262-35.737z" p-id="8910" fill="#ffffff"></path></svg>