<?xml version="1.0" standalone="no"?><!DOCTYPE svg PUBLIC "-//W3C//DTD SVG 1.1//EN" "http://www.w3.org/Graphics/SVG/1.1/DTD/svg11.dtd"><svg t="1599104375667" class="icon" viewBox="0 0 1024 1024" version="1.1" xmlns="http://www.w3.org/2000/svg" p-id="13374" xmlns:xlink="http://www.w3.org/1999/xlink" width="64" height="64"><defs><style type="text/css"></style></defs><path d="M773.632 419.84H254.464c-12.8 0-23.552-10.24-23.552-23.04s10.752-23.04 23.552-23.04h519.168c12.8 0 23.552 10.24 23.552 23.04s-10.752 23.04-23.552 23.04z m-151.04 179.2H254.464c-12.8 0-23.552-12.8-23.552-25.6s10.752-25.6 23.552-25.6h368.128c12.8 0 23.552 12.8 23.552 25.6s-10.752 25.6-23.552 25.6z m66.048 179.2H254.464c-12.8 0-23.552-12.8-23.552-25.6s10.752-25.6 23.552-25.6h434.176c12.8 0 23.552 12.8 23.552 25.6s-10.752 25.6-23.552 25.6zM660.48 235.52H363.52c-50.176 0-89.6-38.4-89.6-87.04 0-41.472 28.672-74.752 68.608-83.968C352.256 27.136 387.072 0 429.568 0h164.864c42.496 0 77.312 26.624 87.04 64.512 39.936 8.704 68.608 43.008 68.608 84.48 0 48.64-39.424 86.528-89.6 86.528zM429.568 46.08c-24.064 0-42.496 16.896-42.496 39.424 0 12.8-10.752 23.552-23.552 23.552-24.064 0-42.496 15.36-42.496 37.888S339.456 184.32 363.52 184.32h296.96c24.064 0 42.496-15.36 42.496-37.888s-18.432-38.4-42.496-38.4c-12.8 0-23.552-10.24-23.552-23.04 0-22.528-18.432-38.912-42.496-38.912H429.568z" p-id="13375" fill="#ffffff"></path><path d="M842.24 1022.976h-660.48c-65.024 0-117.76-52.736-117.76-117.76v-660.48c0-65.024 52.736-117.76 117.76-117.76h115.712c12.8 0 23.552 10.752 23.552 23.552S310.272 174.08 297.472 174.08H181.76c-38.912 0-70.656 31.744-70.656 70.656v660.48c0 38.912 31.744 70.656 70.656 70.656h660.48c38.912 0 70.656-31.744 70.656-70.656v-660.48c0-38.912-31.744-70.656-70.656-70.656h-115.712c-12.8 0-23.552-10.752-23.552-23.552s10.752-23.552 23.552-23.552h115.712c65.024 0 117.76 52.736 117.76 117.76v660.48c0 64.512-52.736 117.76-117.76 117.76z" p-id="13376" fill="#ffffff"></path></svg>