<?xml version="1.0" standalone="no"?><!DOCTYPE svg PUBLIC "-//W3C//DTD SVG 1.1//EN" "http://www.w3.org/Graphics/SVG/1.1/DTD/svg11.dtd"><svg t="1619173905183" class="icon" viewBox="0 0 1024 1024" version="1.1" xmlns="http://www.w3.org/2000/svg" p-id="5077" xmlns:xlink="http://www.w3.org/1999/xlink" width="200" height="200"><defs><style type="text/css"></style></defs><path d="M672.768 832c17.408-0.512 31.232-14.336 31.232-31.744 0-17.408-14.336-31.744-31.744-31.744H352.256c-17.408 0-31.744 14.336-31.744 31.744 0 17.408 13.824 31.744 31.232 31.744H128s-1.024 25.6 18.944 45.056c18.944 19.968 45.056 18.944 45.056 18.944h640s25.6 1.024 45.056-18.944c19.456-18.944 18.944-45.056 18.944-45.056h-223.232zM64 223.744v384c0 53.248 43.008 96.256 96.256 96.256h704c53.248 0 96.256-43.008 96.256-96.256v-384c0-53.248-43.008-96.256-96.256-96.256H159.744c-52.736 0.512-95.744 43.52-95.744 96.256z m64 0c0-17.92 14.336-31.744 31.744-31.744h704c17.92 0 31.744 14.336 31.744 31.744v384c0 17.92-14.336 31.744-31.744 31.744H159.744c-17.92 0-31.744-14.336-31.744-31.744v-384z" p-id="5078" fill="#1296db"></path><path d="M666.624 261.12c-34.816-34.304-90.624-33.792-124.928 1.024L471.552 332.288c-16.384 16.384-26.112 38.912-26.112 62.464-0.512 23.552 8.704 46.08 25.088 62.464 6.144 5.632 15.36 5.12 20.992-0.512 5.632-5.632 5.632-14.848 0-20.48-10.752-10.752-16.896-25.6-16.896-41.472 0-15.872 6.656-31.232 17.92-41.984l70.144-70.144c23.04-23.552 60.416-23.552 83.456-1.024 10.752 10.752 16.896 26.112 16.896 41.472 0 15.872-6.656 31.232-17.92 41.984l-44.544 44.544c-5.12 6.144-4.608 15.36 1.536 20.48 5.632 4.608 13.312 4.608 18.944 0l45.056-43.52c16.896-16.896 26.112-39.424 26.112-62.976 0-23.04-9.216-45.568-25.6-62.464z" fill="#1296db" p-id="5079"></path><path d="M539.136 371.2c-7.68 2.048-12.288 10.24-10.24 17.92 0.512 2.56 2.048 4.608 3.584 6.656 10.752 10.752 16.896 25.6 16.896 41.472 0 15.872-6.656 31.232-17.92 41.984l-70.144 70.144c-23.04 23.552-60.416 23.552-83.456 1.024-10.752-10.752-16.896-26.112-16.896-41.472 0-15.872 6.656-30.72 17.92-41.984l45.568-44.544c5.632-6.144 5.12-15.36-1.024-20.992-5.632-5.632-14.848-5.12-20.48 0.512L358.4 445.952c-16.384 16.384-26.112 38.912-26.112 62.464-0.512 47.616 37.376 87.04 84.992 87.552h2.048c24.064 0 47.104-9.216 64-26.112L552.96 499.712c16.384-16.384 26.112-38.912 26.112-62.464 0.512-23.552-8.704-46.08-25.088-62.464-4.608-3.584-9.728-5.12-14.848-3.584z" fill="#1296db" p-id="5080"></path></svg>