<?xml version="1.0" standalone="no"?><!DOCTYPE svg PUBLIC "-//W3C//DTD SVG 1.1//EN" "http://www.w3.org/Graphics/SVG/1.1/DTD/svg11.dtd"><svg t="1595933649406" class="icon" viewBox="0 0 1606 1024" version="1.1" xmlns="http://www.w3.org/2000/svg" p-id="35693" xmlns:xlink="http://www.w3.org/1999/xlink" width="100.375" height="64"><defs><style type="text/css"></style></defs><path d="M0 731.428571c0 144.751249 108.435564 264.951049 250.629371 288.479521l50.125874 4.091908h496.655344l10.229771-1.534466 496.655344 1.022977 50.125874-4.091908c142.193806-23.016983 250.629371-143.216783 250.629371-288.47952 0-127.360639-83.884116-235.796204-200.503496-275.692308-4.091908-252.163836-215.848152-455.224775-476.707293-455.224775-187.716284 0-350.36963 105.366633-428.115884 258.813187a203.725874 203.725874 0 0 0-148.843157-64.447553c-110.993007 0-200.503497 87.464535-200.503497 194.877123 0 28.131868 6.137862 54.729271 16.879121 78.769231-98.717283 48.591409-167.256743 148.331668-167.256743 263.416583z m250.629371-236.81918l-24.03996-62.913087c-5.626374-12.275724-8.695305-25.062937-8.695305-38.361639 0-52.171828 53.194805-130.42957 136.055944-130.42957 28.643357 0 61.89011 14.321678 80.815185 34.26973l78.257742 54.729271 66.493507-88.999001c75.7003-112.527473 203.060939-189.762238 346.78921-189.762238 202.549451 0 402.541459 193.342657 405.61039 386.173826v68.539461l70.585415 18.925075c79.792208 26.597403 132.987013 98.717283 132.987012 179.020979 0 93.090909-95.648352 209.71029-191.808191 225.054945h-537.062937v0.511488h-10.229771v-0.511488h-493.074925l-33.246753-2.557443c-96.15984-15.344655-202.549451-129.406593-202.54945-222.497502 1.534466-72.631369 63.424575-189.762238 183.112887-231.192807z" fill="#1296db" p-id="35694"></path></svg>