<?xml version="1.0" standalone="no"?><!DOCTYPE svg PUBLIC "-//W3C//DTD SVG 1.1//EN" "http://www.w3.org/Graphics/SVG/1.1/DTD/svg11.dtd"><svg t="1595927295875" class="icon" viewBox="0 0 1027 1024" version="1.1" xmlns="http://www.w3.org/2000/svg" p-id="18192" xmlns:xlink="http://www.w3.org/1999/xlink" width="64.1875" height="64"><defs><style type="text/css"></style></defs><path d="M28.8 548.8h974.4c12.8 0 20.8-12.8 14.4-24L856 184c-3.2-6.4-8-9.6-14.4-9.6H192c-6.4 0-12.8 3.2-14.4 9.6L14.4 524.8c-6.4 11.2 1.6 24 14.4 24zM659.2 251.2h68.8l14.4 60.8h40l-62.4 59.2-88-60.8h40l-12.8-59.2zM486.4 310.4v-60.8h70.4v60.8h40l-76.8 60.8-72-60.8h38.4z m-187.2 0l12.8-59.2h70.4l-11.2 60.8h36.8l-88 59.2L257.6 310.4h41.6z m-108.8 68.8h654.4l19.2 48h-688l14.4-48zM500.8 675.2c-3.2-1.6-4.8-1.6-8-1.6h-25.6v32h27.2c3.2 0 4.8-1.6 6.4-3.2l4.8-4.8c1.6-1.6 1.6-4.8 1.6-8s0-6.4-1.6-8c0-4.8-1.6-6.4-4.8-6.4z" fill="#1296db" p-id="18193"></path><path d="M1000 584H27.2c-14.4 0-27.2 11.2-27.2 25.6v201.6c0 14.4 11.2 27.2 27.2 27.2h972.8c14.4 0 27.2-11.2 27.2-27.2V609.6c0-14.4-12.8-25.6-27.2-25.6zM411.2 782.4h-30.4v-136h30.4v136z m126.4-73.6c-3.2 4.8-6.4 9.6-11.2 12.8s-9.6 4.8-16 6.4-12.8 1.6-19.2 1.6h-22.4v52.8h-30.4v-136h51.2c6.4 0 14.4 0 19.2 1.6 6.4 1.6 11.2 3.2 16 6.4s8 8 11.2 12.8 4.8 12.8 4.8 20.8-1.6 14.4-3.2 20.8z m105.6 52.8c-3.2 6.4-6.4 9.6-11.2 14.4-4.8 3.2-9.6 6.4-16 8s-12.8 3.2-20.8 3.2c-9.6 0-17.6-1.6-24-4.8s-14.4-6.4-20.8-12.8l20.8-24c3.2 4.8 6.4 8 11.2 9.6s9.6 3.2 14.4 3.2c3.2 0 4.8 0 8-1.6 3.2 0 4.8-1.6 6.4-3.2l4.8-4.8c1.6-1.6 1.6-3.2 1.6-6.4 0-4.8-1.6-8-4.8-9.6s-6.4-4.8-11.2-6.4-9.6-3.2-16-4.8c-4.8-1.6-11.2-3.2-16-6.4s-8-6.4-11.2-11.2-4.8-11.2-4.8-17.6c0-8 1.6-14.4 4.8-19.2s6.4-9.6 11.2-14.4c4.8-3.2 9.6-6.4 16-8s12.8-3.2 19.2-3.2c8 0 14.4 1.6 22.4 3.2s14.4 6.4 19.2 11.2L625.6 680c-3.2-3.2-6.4-4.8-9.6-6.4-4.8-1.6-8-1.6-11.2-1.6h-6.4c-1.6 0-4.8 1.6-6.4 1.6l-4.8 4.8c-1.6 1.6-1.6 3.2-1.6 6.4 0 4.8 1.6 8 4.8 9.6s6.4 4.8 11.2 4.8 9.6 3.2 14.4 4.8c4.8 1.6 9.6 3.2 14.4 6.4 4.8 3.2 8 6.4 11.2 11.2s4.8 11.2 4.8 19.2c1.6 8 0 14.4-3.2 20.8z" fill="#1296db" p-id="18194"></path></svg>