<?xml version="1.0" standalone="no"?><!DOCTYPE svg PUBLIC "-//W3C//DTD SVG 1.1//EN" "http://www.w3.org/Graphics/SVG/1.1/DTD/svg11.dtd"><svg t="1595927126035" class="icon" viewBox="0 0 1024 1024" version="1.1" xmlns="http://www.w3.org/2000/svg" p-id="17096" xmlns:xlink="http://www.w3.org/1999/xlink" width="64" height="64"><defs><style type="text/css"></style></defs><path d="M626 403.9H398.3c-20.4 0-37-16.6-37-37V139.2c0-20.4 16.6-37 37-37H626c20.4 0 37 16.6 37 37v227.7c0 20.4-16.6 37-37 37z m-214.7-50H613V152.2H411.3v201.7z" fill="#1296db" p-id="17097"></path><path d="M487.4 378.8h50v122.7h-50z" fill="#1296db" p-id="17098"></path><path d="M842.2 615.6l-0.1-89H180.6v88.6h-50v-88.6c0-27.6 22.4-50 50-50h661.5c27.6 0 50 22.4 50 50l0.1 89h-50z" fill="#1296db" p-id="17099"></path><path d="M487.4 501.5h50v112.1h-50z" fill="#1296db" p-id="17100"></path><path d="M273.9 897.2H46.2c-20.4 0-37-16.6-37-37V632.5c0-20.4 16.6-37 37-37h227.7c20.4 0 37 16.6 37 37v227.7c0 20.4-16.6 37-37 37z m-214.7-50h201.7V645.5H59.2v201.7zM627.2 900.3H399.5c-20.4 0-37-16.6-37-37V635.6c0-20.4 16.6-37 37-37h227.7c20.4 0 37 16.6 37 37v227.7c0 20.4-16.6 37-37 37z m-214.7-50h201.7V648.6H412.5v201.7zM978.1 900.3H750.4c-20.4 0-37-16.6-37-37V635.6c0-20.4 16.6-37 37-37h227.7c20.4 0 37 16.6 37 37v227.7c0 20.4-16.6 37-37 37z m-214.7-50h201.7V648.6H763.4v201.7z" fill="#1296db" p-id="17101"></path></svg>