<?xml version="1.0" standalone="no"?><!DOCTYPE svg PUBLIC "-//W3C//DTD SVG 1.1//EN" "http://www.w3.org/Graphics/SVG/1.1/DTD/svg11.dtd"><svg t="1595927028358" class="icon" viewBox="0 0 1024 1024" version="1.1" xmlns="http://www.w3.org/2000/svg" p-id="10568" xmlns:xlink="http://www.w3.org/1999/xlink" width="64" height="64"><defs><style type="text/css"></style></defs><path d="M258.7 639.4c-9.2 2.5-18.7-3-21.1-12.2l-95.3-355.7c-2.5-9.2 3-18.7 12.2-21.1 9.2-2.5 18.7 3 21.1 12.2l95.3 355.7c2.5 9.1-3 18.6-12.2 21.1z" fill="#E7F7FF" p-id="10569"></path><path d="M158.9 249.8c7.6 0 14.6 5.1 16.7 12.8l95.3 355.7c2.5 9.2-3 18.7-12.2 21.1-1.5 0.4-3 0.6-4.4 0.6-7.6 0-14.6-5.1-16.7-12.8l-95.3-355.7c-2.5-9.2 3-18.7 12.2-21.1 1.5-0.4 3-0.6 4.4-0.6m0-23c-3.5 0-7 0.5-10.4 1.4-10.4 2.8-19.1 9.4-24.4 18.8-5.4 9.3-6.8 20.2-4 30.6l95.3 355.7c4.7 17.6 20.7 29.8 38.9 29.8 3.5 0 7-0.5 10.4-1.4 10.4-2.8 19.1-9.4 24.4-18.8 5.4-9.3 6.8-20.2 4-30.6l-95.3-355.7c-4.7-17.6-20.7-29.8-38.9-29.8z" fill="#0098FF" p-id="10570"></path><path d="M138.504 321.866l66.647-17.857 6.703 25.017-66.648 17.857zM149.79 368.235l66.647-17.858 2.976 11.108-66.647 17.857z" fill="#0098FF" p-id="10571"></path><path d="M750.2 641.3c-9.2-2.5-14.7-12-12.2-21.1l95.3-355.7c2.5-9.2 12-14.7 21.1-12.2 9.2 2.5 14.7 12 12.2 21.1l-95.3 355.7c-2.4 9.2-11.9 14.7-21.1 12.2z" fill="#E7F7FF" p-id="10572"></path><path d="M850 251.7c1.5 0 3 0.2 4.4 0.6 9.2 2.5 14.7 12 12.2 21.1l-95.3 355.7c-2.1 7.7-9.1 12.8-16.7 12.8-1.5 0-3-0.2-4.4-0.6-9.2-2.5-14.7-12-12.2-21.1l95.3-355.7c2.1-7.7 9.1-12.8 16.7-12.8m0-23c-18.2 0-34.2 12.3-38.9 29.8l-95.3 355.7c-2.8 10.4-1.3 21.2 4 30.6 5.4 9.3 14.1 16 24.4 18.8 3.4 0.9 6.9 1.4 10.4 1.4 18.2 0 34.2-12.3 38.9-29.8l95.3-355.7c5.7-21.5-7-43.6-28.5-49.3-3.3-1.1-6.8-1.5-10.3-1.5z" fill="#0098FF" p-id="10573"></path><path d="M795.21 341.876l6.704-25.017 66.647 17.858-6.703 25.016zM782.938 373.457l2.976-11.108 66.647 17.858-2.976 11.107z" fill="#0098FF" p-id="10574"></path><path d="M932 836.9H92c-38 0-69-31.1-69-69v-69c0-38 31.1-69 69-69h840c38 0 69 31.1 69 69v69c0 37.9-31 69-69 69z" fill="#E7F7FF" p-id="10575"></path><path d="M932 848.4H92c-44.4 0-80.5-36.1-80.5-80.5v-69c0-44.4 36.1-80.5 80.5-80.5h840c44.4 0 80.5 36.1 80.5 80.5v69c0.1 44.4-36.1 80.5-80.5 80.5zM92 641.3c-31.7 0-57.5 25.8-57.5 57.5v69c0 31.7 25.8 57.5 57.5 57.5h840c31.7 0 57.5-25.8 57.5-57.5v-69c0-31.7-25.8-57.5-57.5-57.5H92z" fill="#0098FF" p-id="10576"></path><path d="M719.1 768.8c-6.5 0-11.7-5.3-11.7-11.7v-47.5c0-6.5 5.3-11.7 11.7-11.7 6.5 0 11.7 5.3 11.7 11.7v47.5c0.1 6.4-5.2 11.7-11.7 11.7zM834.7 768.8c-6.5 0-11.7-5.3-11.7-11.7v-47.5c0-6.5 5.3-11.7 11.7-11.7 6.5 0 11.7 5.3 11.7 11.7v47.5c0 6.4-5.3 11.7-11.7 11.7z" fill="#A2DEFD" p-id="10577"></path><path d="M776.7 768.8c-6.5 0-11.7-5.3-11.7-11.7v-47.5c0-6.5 5.3-11.7 11.7-11.7 6.5 0 11.7 5.3 11.7 11.7v47.5c0 6.4-5.3 11.7-11.7 11.7zM893.2 768.8c-6.5 0-11.7-5.3-11.7-11.7v-47.5c0-6.5 5.3-11.7 11.7-11.7 6.5 0 11.7 5.3 11.7 11.7v47.5c0 6.4-5.3 11.7-11.7 11.7z" fill="#0098FF" p-id="10578"></path><path d="M122.2 733.3m-15.8 0a15.8 15.8 0 1 0 31.6 0 15.8 15.8 0 1 0-31.6 0Z" fill="#0098FF" p-id="10579"></path><path d="M189.8 733.3m-15.8 0a15.8 15.8 0 1 0 31.6 0 15.8 15.8 0 1 0-31.6 0Z" fill="#A2DEFD" p-id="10580"></path><path d="M256.9 733.3m-15.8 0a15.8 15.8 0 1 0 31.6 0 15.8 15.8 0 1 0-31.6 0Z" fill="#8CD5FD" p-id="10581"></path><path d="M139.4 868.7h-31.5c-8.7 0-15.9-7.2-15.9-15.9s7.2-15.9 15.9-15.9h31.5c8.7 0 15.9 7.2 15.9 15.9 0 8.8-7.2 15.9-15.9 15.9zM903.1 868.7h-31.5c-8.7 0-15.9-7.2-15.9-15.9s7.2-15.9 15.9-15.9h31.5c8.7 0 15.9 7.2 15.9 15.9 0 8.8-7.2 15.9-15.9 15.9zM475.1 392.3l18.5 19.5c10.2 10.8 26.7 10.8 36.9 0l18.5-19.5c-20.5-21.5-53.5-21.5-73.9 0m-73.8-78l36.9 39c40.7-43.1 106.9-43.1 147.7 0l36.9-39c-61.2-64.8-160.4-64.8-221.5 0M677 256.9l-17.3 18.3c-81.5-86.3-213.7-86.3-295.3 0L347 256.9c-11.1-11.7-9.9-31.1 2.3-41.4 94.9-80.2 230.4-80.2 325.4 0 12.2 10.3 13.3 29.7 2.3 41.4" fill="#0098FF" p-id="10582"></path></svg>