<?xml version="1.0" standalone="no"?><!DOCTYPE svg PUBLIC "-//W3C//DTD SVG 1.1//EN" "http://www.w3.org/Graphics/SVG/1.1/DTD/svg11.dtd"><svg t="1595926824566" class="icon" viewBox="0 0 1024 1024" version="1.1" xmlns="http://www.w3.org/2000/svg" p-id="7749" width="64" height="64" xmlns:xlink="http://www.w3.org/1999/xlink"><defs><style type="text/css"></style></defs><path d="M181.711552 705.027272c-12.849656 0-23.453155 10.603499-23.453155 23.762193v126.888945c0 13.416568 10.603499 24.330128 23.453155 24.330128 13.158694 0 24.047696-10.911514 24.047695-24.330128V728.789465c-0.002047-13.156648-10.890025-23.762193-24.047695-23.762193z m841.989643-40.275286c0-2.24718 0-4.179183-0.564865-6.141884L934.816818 118.516254c-3.37998-20.382213-12.875239-40.249703-26.2652-53.92312-15.120372-14.835893-34.135448-23.762193-57.615209-23.762193H173.043125c-23.170722 0-44.456514 9.211802-59.832714 24.588001h-0.233313c-14.550391 15.092743-23.503297 35.218106-24.046673 57.018621l-87.799672 532.533663c-0.825808 3.638877-1.109264 6.42227-1.109264 9.779737v227.568972c2.785439 40.791032 29.077246 76.859505 71.544453 87.774089l0.568959 0.567935h1.678222l1.109264 0.258897 1.134846 0.283455 1.134847 0.285503h1.10824l0.825808 0.285502 1.394767 0.255827 5.881964 0.568958 2.526543 0.283456h1.11131l1.109264 0.283456h838.069357c52.015677 0 94.483908-42.778292 94.483908-95.05082V664.751986h-0.002046zM166.359912 131.651412c0.541329-2.217505 0.823761-4.179183 0.823761-6.682189 0-1.419326 0.825808-2.814092 1.678223-3.640924 1.134847-1.108241 2.787486-2.243087 4.181229-2.243087h677.894307c0.571005 0 1.137916 0 1.422396 1.133823 2.50096 2.501984 4.181229 6.682189 5.004991 11.428284l72.718185 470.13245c-2.808976-0.567935-5.02955-0.567935-7.273661-0.567935H99.670024c-2.24411 0-5.058203 0-7.273661 0.567935l73.963549-470.128357z m778.805602 756.460688c0 8.665357-7.275707 15.947204-15.945157 15.947204H94.220918c-7.819083-0.572028-14.550391-5.599532-15.377222-13.989619v-0.279363h-0.285502V695.507454c0.567935-8.670473 7.560186-15.35164 16.514115-15.35164h834.147024c4.464685 0 8.382924 1.65264 11.169387 4.745071 2.786463 2.76395 4.774747 6.682189 4.774747 10.606569v192.604646h0.002047zM788.887214 713.670116c-43.629683 0-79.107709 35.245735-79.107709 78.565356s35.478026 78.82323 79.107709 78.82323c42.778292 0 78.849836-35.788088 78.849836-78.82323-0.005117-43.319621-35.788088-78.565357-78.849836-78.565356z m0 109.863176c-17.880229 0-32.148188-13.984503-32.148187-31.296796 0-17.622356 14.267958-31.606859 32.148187-31.606859 17.311271 0 31.321356 14.266935 31.321357 31.606859 0.002047 17.027815-14.009062 31.296797-31.321357 31.296796zM355.86701 705.027272c-13.132088 0-23.736611 10.603499-23.73661 23.762193v126.888945c0 13.416568 10.604522 24.330128 23.73661 24.330128 12.875239 0 23.762193-10.911514 23.762193-24.330128V728.789465c0-13.156648-10.886955-23.762193-23.762193-23.762193z m-86.922698 0c-12.847609 0-23.503297 10.603499-23.503297 23.762193v126.888945c0 13.416568 10.654664 24.330128 23.503297 24.330128 12.849656 0 23.478737-10.911514 23.478737-24.330128V728.789465c0-13.156648-10.631128-23.762193-23.478737-23.762193z m173.779905-489.65611v-71.595618s0.265036-3.797489-9.509585-5.440919c-8.195659-1.3743-16.043395 2.855024-16.043394 2.855024l-165.235299 89.553619s-15.4509 6.039553-15.4509 17.963117c0 11.648294 10.954493 16.393365 10.954493 16.393365l166.19516 87.170339s10.531867 2.943029 19.502169 1.490957c9.689686-1.568728 9.587356-6.985088 9.587356-6.985088v-67.01223h161.687496s127.483486 13.090133 127.483486 49.212842c0 0-2.143826-113.602338-131.594107-113.602338H442.724217v-0.00307z m165.363212 288.737101v71.661109s1.718131 4.362354 12.117992 5.408174c6.941086 0.698918 11.272741-1.997494 12.787234-2.818186 3.473101-1.88493 165.384701-89.635483 165.384701-89.635483s15.46318-6.042623 15.46318-17.97949c0-11.657504-10.963703-16.406668-10.963702-16.406668L636.531248 367.085516s-6.919597-3.202948-16.323781-1.327228c-11.623735 2.314719-12.120039 6.828522-12.120038 6.828522v67.068512H445.582311s-127.598096-13.098319-127.598096-49.253774c0 0 2.143826 113.703645 131.711787 113.703645h158.391427v0.00307z" fill="#1296db" p-id="7750"></path></svg>